<svg width="64" height="64" viewBox="0 0 64 64" fill="none" xmlns="http://www.w3.org/2000/svg">
  <!-- Logo AUTOMIVY : Bras robotique avec feuille -->
  
  <!-- Feuille (base, à gauche) -->
  <path d="M14 48 C16 46 18 48 16 50 C14 52 12 50 14 48 Z" fill="#1A5D5E" stroke="#0F3D3E" stroke-width="0.4"/>
  <path d="M16 50 L16 56" stroke="#0F3D3E" stroke-width="1.2" stroke-linecap="round"/>
  <path d="M14 52 L18 52" stroke="#0F3D3E" stroke-width="1" stroke-linecap="round"/>
  
  <!-- Segment 1 du bras robotique (base) -->
  <path d="M16 48 L22 42 L26 46 L22 52 L18 50 Z" fill="#1A5D5E" stroke="#0F3D3E" stroke-width="0.4"/>
  <circle cx="20" cy="44" r="2" fill="#0F3D3E"/>
  <circle cx="20" cy="44" r="0.9" fill="#FFFFFF" opacity="0.8"/>
  
  <!-- Segment 2 du bras (milieu) -->
  <path d="M26 44 L32 38 L36 42 L32 48 L28 46 Z" fill="#1A5D5E" stroke="#0F3D3E" stroke-width="0.4"/>
  <circle cx="30" cy="40" r="2" fill="#0F3D3E"/>
  <circle cx="30" cy="40" r="0.9" fill="#FFFFFF" opacity="0.8"/>
  
  <!-- Segment 3 du bras (extrémité) -->
  <path d="M34 40 L40 34 L44 38 L40 44 L36 42 Z" fill="#1A5D5E" stroke="#0F3D3E" stroke-width="0.4"/>
  <circle cx="38" cy="36" r="2" fill="#0F3D3E"/>
  <circle cx="38" cy="36" r="0.9" fill="#FFFFFF" opacity="0.8"/>
  
  <!-- Pointe finale arrondie -->
  <circle cx="42" cy="40" r="2.8" fill="#1A5D5E" stroke="#0F3D3E" stroke-width="0.4"/>
  
  <!-- Texte AUTOMIVY (simplifié pour favicon 64x64) -->
  <text x="32" y="60" font-family="Arial, sans-serif" font-size="5.5" font-weight="bold" fill="#0A2A2B" text-anchor="middle" letter-spacing="0.3">AUTOMIVY</text>
</svg>
